G04*
G04 #@! TF.GenerationSoftware,Altium Limited,Altium Designer,25.4.2 (15)*
G04*
G04 Layer_Color=8421504*
%FSLAX44Y44*%
%MOMM*%
G71*
G04*
G04 #@! TF.SameCoordinates,DF76A245-F719-427C-BC09-B61DEF695D9A*
G04*
G04*
G04 #@! TF.FilePolarity,Positive*
G04*
G01*
G75*
%ADD15R,5.6000X1.5500*%
%ADD16R,1.1200X1.2200*%
%ADD17R,0.9700X1.4700*%
G04:AMPARAMS|DCode=18|XSize=1mm|YSize=1mm|CornerRadius=0.25mm|HoleSize=0mm|Usage=FLASHONLY|Rotation=90.000|XOffset=0mm|YOffset=0mm|HoleType=Round|Shape=RoundedRectangle|*
%AMROUNDEDRECTD18*
21,1,1.0000,0.5000,0,0,90.0*
21,1,0.5000,1.0000,0,0,90.0*
1,1,0.5000,0.2500,0.2500*
1,1,0.5000,0.2500,-0.2500*
1,1,0.5000,-0.2500,-0.2500*
1,1,0.5000,-0.2500,0.2500*
%
%ADD18ROUNDEDRECTD18*%
%ADD19R,0.8100X2.8200*%
G04:AMPARAMS|DCode=20|XSize=1mm|YSize=1mm|CornerRadius=0.25mm|HoleSize=0mm|Usage=FLASHONLY|Rotation=0.000|XOffset=0mm|YOffset=0mm|HoleType=Round|Shape=RoundedRectangle|*
%AMROUNDEDRECTD20*
21,1,1.0000,0.5000,0,0,0.0*
21,1,0.5000,1.0000,0,0,0.0*
1,1,0.5000,0.2500,-0.2500*
1,1,0.5000,-0.2500,-0.2500*
1,1,0.5000,-0.2500,0.2500*
1,1,0.5000,0.2500,0.2500*
%
%ADD20ROUNDEDRECTD20*%
%ADD21R,1.9500X1.4000*%
%ADD22R,1.0000X1.7500*%
%ADD23R,2.2000X2.1500*%
%ADD24R,0.6200X1.8200*%
%ADD25R,0.9500X1.0000*%
%ADD26R,1.4300X2.8200*%
%ADD27R,0.4000X2.1000*%
%ADD28R,1.0000X1.0000*%
%ADD29R,2.8200X1.4300*%
%ADD30R,1.0000X1.0000*%
%ADD31R,1.0000X0.9500*%
%ADD32R,2.1000X0.4000*%
%ADD33R,1.4700X0.9700*%
%ADD34R,2.8200X0.8100*%
%ADD35R,2.1500X2.2000*%
%ADD36R,1.8200X0.6200*%
%ADD37R,0.5600X0.2500*%
%ADD38R,0.9500X1.4500*%
%ADD39R,1.4500X0.9500*%
%ADD40R,0.2500X0.5600*%
%ADD41R,0.9000X1.4500*%
%ADD42R,0.2500X0.6000*%
%ADD43R,0.6000X0.2500*%
%ADD44R,0.2500X1.7000*%
%ADD45R,3.3000X1.1900*%
%ADD46R,1.0000X0.9000*%
%ADD47R,1.4500X0.9000*%
%ADD48R,0.7000X0.6500*%
%ADD49R,1.2000X1.8000*%
%ADD50R,0.6500X0.7000*%
%ADD51R,1.1500X1.1500*%
%ADD52R,1.7500X1.0000*%
%ADD53R,3.7500X5.2000*%
%ADD54R,1.5500X5.6000*%
%ADD55R,1.7000X0.2500*%
D15*
X681500Y850500D02*
D03*
Y810000D02*
D03*
D16*
X699750Y937750D02*
D03*
X731750D02*
D03*
D17*
X707450Y913250D02*
D03*
X767300Y976500D02*
D03*
Y998250D02*
D03*
X750700D02*
D03*
Y976500D02*
D03*
X724050Y913250D02*
D03*
X724300Y751250D02*
D03*
Y773000D02*
D03*
X450784Y772686D02*
D03*
Y750936D02*
D03*
X450700Y567500D02*
D03*
Y545750D02*
D03*
X467300Y567500D02*
D03*
Y545750D02*
D03*
X467384Y772686D02*
D03*
Y750936D02*
D03*
X707700Y751250D02*
D03*
Y773000D02*
D03*
D18*
X778500Y919000D02*
D03*
X507500Y500000D02*
D03*
X612000Y499750D02*
D03*
X287250Y800000D02*
D03*
Y594250D02*
D03*
X259000Y1116000D02*
D03*
D19*
X699750Y883000D02*
D03*
X731750D02*
D03*
D20*
X593250Y932000D02*
D03*
D21*
X805500Y969750D02*
D03*
X505584Y744186D02*
D03*
X805500Y999750D02*
D03*
X505584Y774186D02*
D03*
X669500Y749750D02*
D03*
Y779750D02*
D03*
X505500Y539000D02*
D03*
Y569000D02*
D03*
D22*
X692000Y1000750D02*
D03*
X363000Y570000D02*
D03*
X392000D02*
D03*
X392084Y775186D02*
D03*
X363084D02*
D03*
X663000Y1000750D02*
D03*
X812000Y748750D02*
D03*
X783000D02*
D03*
D23*
X568000Y539500D02*
D03*
X710250Y671750D02*
D03*
X332000Y481000D02*
D03*
X666250Y671750D02*
D03*
X612000Y539500D02*
D03*
X288000Y481000D02*
D03*
D24*
X397000Y536000D02*
D03*
Y511000D02*
D03*
X822000Y491500D02*
D03*
Y516250D02*
D03*
X790000Y491500D02*
D03*
Y516250D02*
D03*
X429000Y511000D02*
D03*
Y536000D02*
D03*
D25*
X411250Y490000D02*
D03*
X773250Y1076250D02*
D03*
X701750Y640750D02*
D03*
X814000Y470750D02*
D03*
X473334Y850686D02*
D03*
X473250Y645500D02*
D03*
X789250Y1076250D02*
D03*
X685750Y640750D02*
D03*
X427250Y490000D02*
D03*
X798000Y470750D02*
D03*
X489334Y850686D02*
D03*
X489250Y645500D02*
D03*
X421714Y858936D02*
D03*
X437714D02*
D03*
X421500Y653750D02*
D03*
X437500D02*
D03*
X523250Y588750D02*
D03*
X507250D02*
D03*
X523334Y793936D02*
D03*
X507334D02*
D03*
X823250Y1019500D02*
D03*
X807250D02*
D03*
X721630Y1084500D02*
D03*
X737630D02*
D03*
X667750Y730000D02*
D03*
X651750D02*
D03*
X737500Y665000D02*
D03*
X753500D02*
D03*
D26*
X768350Y1102250D02*
D03*
Y1137250D02*
D03*
X706650Y612250D02*
D03*
Y577000D02*
D03*
X468434Y911686D02*
D03*
Y876686D02*
D03*
X468350Y706500D02*
D03*
Y671500D02*
D03*
X794150Y1102250D02*
D03*
Y1137250D02*
D03*
X680850Y577000D02*
D03*
Y612250D02*
D03*
X494234Y911686D02*
D03*
Y876686D02*
D03*
X494150Y671500D02*
D03*
Y706500D02*
D03*
D27*
X772950Y1040000D02*
D03*
X702050Y709500D02*
D03*
X473034Y814436D02*
D03*
X472950Y609250D02*
D03*
X784550Y1040000D02*
D03*
X690450Y709500D02*
D03*
X484634Y814436D02*
D03*
X484550Y609250D02*
D03*
D28*
X737500Y1114250D02*
D03*
X737500Y635250D02*
D03*
X437584Y888686D02*
D03*
X437500Y683500D02*
D03*
X737500Y1096250D02*
D03*
X437584Y870686D02*
D03*
X737500Y653250D02*
D03*
X437500Y665500D02*
D03*
D29*
X618372Y1030251D02*
D03*
X583364Y1030207D02*
D03*
X618372Y1004451D02*
D03*
X583364Y1004407D02*
D03*
D30*
X598614Y1061057D02*
D03*
X580614D02*
D03*
D31*
X555380Y1025097D02*
D03*
X260000Y478000D02*
D03*
X555380Y1009097D02*
D03*
X260000Y462000D02*
D03*
X504114Y975307D02*
D03*
Y991307D02*
D03*
X568750Y1061000D02*
D03*
Y1077000D02*
D03*
D32*
X524519Y1025550D02*
D03*
Y1013950D02*
D03*
D33*
X305750Y1047050D02*
D03*
X244750Y1047800D02*
D03*
X327000Y1047050D02*
D03*
Y1030450D02*
D03*
X305750D02*
D03*
X244750Y1031200D02*
D03*
D34*
X272750Y1055500D02*
D03*
Y1023500D02*
D03*
D35*
X213750Y1053575D02*
D03*
Y1009575D02*
D03*
D36*
X214000Y479750D02*
D03*
X239000D02*
D03*
X214000Y447750D02*
D03*
X239000D02*
D03*
D37*
X789250Y1036000D02*
D03*
Y1041000D02*
D03*
Y1031000D02*
D03*
X685750Y713500D02*
D03*
Y718500D02*
D03*
Y708500D02*
D03*
X489334Y805436D02*
D03*
Y810436D02*
D03*
Y815436D02*
D03*
X489250Y605250D02*
D03*
Y600250D02*
D03*
Y610250D02*
D03*
D38*
X737250Y1065250D02*
D03*
X737500Y684250D02*
D03*
X437334Y839686D02*
D03*
X437250Y634500D02*
D03*
X417250D02*
D03*
X417334Y839686D02*
D03*
X717250Y1065250D02*
D03*
X757500Y684250D02*
D03*
D39*
X549769Y1061000D02*
D03*
Y1081000D02*
D03*
D40*
X525519Y1009250D02*
D03*
X520519D02*
D03*
X515519D02*
D03*
D41*
X373500Y614500D02*
D03*
X392500D02*
D03*
X392500Y593000D02*
D03*
X373500D02*
D03*
X373584Y819686D02*
D03*
X392584D02*
D03*
X392584Y798186D02*
D03*
X373584D02*
D03*
X692500Y1023750D02*
D03*
X673500D02*
D03*
X522750Y1068500D02*
D03*
X503750D02*
D03*
X801500Y725750D02*
D03*
X782500D02*
D03*
D42*
X465750Y616750D02*
D03*
X483750Y588750D02*
D03*
X465750D02*
D03*
X465834Y821936D02*
D03*
X483834Y793936D02*
D03*
X465834D02*
D03*
X765750Y1047500D02*
D03*
X783750Y1019500D02*
D03*
X765750D02*
D03*
X691250Y730000D02*
D03*
X709250D02*
D03*
Y702000D02*
D03*
X510519Y1037450D02*
D03*
X515519D02*
D03*
X520519D02*
D03*
X525519D02*
D03*
D43*
X461050Y610250D02*
D03*
Y605250D02*
D03*
Y600250D02*
D03*
Y595250D02*
D03*
X461134Y815436D02*
D03*
Y810436D02*
D03*
Y805436D02*
D03*
Y800436D02*
D03*
X761050Y1041000D02*
D03*
Y1036000D02*
D03*
Y1031000D02*
D03*
Y1026000D02*
D03*
X713950Y723500D02*
D03*
Y718500D02*
D03*
Y713500D02*
D03*
Y708500D02*
D03*
X504019Y1032750D02*
D03*
Y1014750D02*
D03*
X532019Y1032750D02*
D03*
D44*
X478750Y594250D02*
D03*
X478834Y799436D02*
D03*
X778750Y1025000D02*
D03*
X696250Y724500D02*
D03*
D45*
X327334Y892086D02*
D03*
X391334Y866686D02*
D03*
X327334Y841286D02*
D03*
X327250Y636100D02*
D03*
X391250Y661500D02*
D03*
X327250Y686900D02*
D03*
D46*
X430000Y814250D02*
D03*
Y798250D02*
D03*
X430500Y593000D02*
D03*
Y609000D02*
D03*
D47*
X726250Y1042500D02*
D03*
Y1023500D02*
D03*
X508019Y1105750D02*
D03*
Y1124750D02*
D03*
X744750Y728250D02*
D03*
Y709250D02*
D03*
D48*
X708000Y1022500D02*
D03*
Y1036000D02*
D03*
X413500Y797250D02*
D03*
Y810750D02*
D03*
X762750Y713250D02*
D03*
Y726750D02*
D03*
X414500Y605500D02*
D03*
Y592000D02*
D03*
D49*
X691000Y1047000D02*
D03*
X661000D02*
D03*
X813960Y702614D02*
D03*
X783960D02*
D03*
D50*
X507250Y1086500D02*
D03*
X520750D02*
D03*
D51*
X528864Y1130307D02*
D03*
Y1106807D02*
D03*
D52*
X486019Y1106250D02*
D03*
Y1135250D02*
D03*
D53*
X460864Y996807D02*
D03*
X359864D02*
D03*
D54*
X318864Y975807D02*
D03*
X278364D02*
D03*
D55*
X509519Y1019750D02*
D03*
M02*
