G04*
G04 #@! TF.GenerationSoftware,Altium Limited,Altium Designer,25.4.2 (15)*
G04*
G04 Layer_Physical_Order=2*
G04 Layer_Color=16711680*
%FSLAX44Y44*%
%MOMM*%
G71*
G04*
G04 #@! TF.SameCoordinates,DF76A245-F719-427C-BC09-B61DEF695D9A*
G04*
G04*
G04 #@! TF.FilePolarity,Positive*
G04*
G01*
G75*
%ADD11C,0.2540*%
%ADD106R,2.6250X2.6250*%
%ADD107R,1.5750X1.5750*%
%ADD108C,2.6250*%
%ADD109R,2.6250X2.6250*%
%ADD110C,1.5240*%
%ADD111C,1.2000*%
%ADD112C,1.5750*%
%ADD113C,2.5500*%
%ADD114R,2.5500X2.5500*%
%ADD115R,1.2000X1.2000*%
%ADD116R,1.5750X1.5750*%
%ADD117C,1.5080*%
%ADD118C,1.2700*%
%ADD119C,1.0000*%
G36*
X845314Y1158500D02*
X845314Y1158500D01*
X845314D01*
X846690Y1158316D01*
X847968Y1157786D01*
X849286Y1156468D01*
X850000Y1154746D01*
X850000Y1153814D01*
X850000Y1033333D01*
X850000Y1033333D01*
X850000Y1032389D01*
X849277Y1030645D01*
X847943Y1029310D01*
X846199Y1028588D01*
X845255Y1028588D01*
X785162Y1028588D01*
X784632Y1028588D01*
X783654Y1028993D01*
X782905Y1029742D01*
X782500Y1030720D01*
X782500Y1031250D01*
X782500Y1099250D01*
X782500Y1099250D01*
X782500Y1099250D01*
X782423Y1100817D01*
X781812Y1103891D01*
X780613Y1106786D01*
X778872Y1109392D01*
X776656Y1111608D01*
X774050Y1113349D01*
X771155Y1114548D01*
X768081Y1115159D01*
X766514Y1115236D01*
X709020Y1115236D01*
X709020Y1115236D01*
X707387Y1115196D01*
X704137Y1114876D01*
X700934Y1114239D01*
X697809Y1113291D01*
X694792Y1112042D01*
X691912Y1110502D01*
X689197Y1108688D01*
X686673Y1106616D01*
X685490Y1105490D01*
X651523Y1071523D01*
X651523Y1071523D01*
X650191Y1070124D01*
X647742Y1067140D01*
X645597Y1063930D01*
X643777Y1060525D01*
X642300Y1056958D01*
X641179Y1053263D01*
X640426Y1049477D01*
X640047Y1045634D01*
X640000Y1043704D01*
Y969770D01*
X640000Y969770D01*
X640000Y969054D01*
X639720Y967649D01*
X639173Y966326D01*
X638377Y965136D01*
X637364Y964123D01*
X636174Y963327D01*
X634851Y962779D01*
X633446Y962500D01*
X632730Y962500D01*
X600000D01*
X559631Y922131D01*
Y680000D01*
X616750D01*
X616750Y711000D01*
X616750Y711000D01*
X616826Y712468D01*
X617172Y714209D01*
X618001Y716211D01*
X619205Y718012D01*
X620737Y719545D01*
X622539Y720749D01*
X624541Y721578D01*
X626666Y722000D01*
X627750Y722000D01*
X682250Y722000D01*
X682250Y722000D01*
X682250Y722000D01*
X682251D01*
X683634Y721923D01*
X685205Y721611D01*
X687049Y720847D01*
X688708Y719738D01*
X690119Y718327D01*
X691228Y716668D01*
X691992Y714824D01*
X692381Y712867D01*
X692381Y711869D01*
X692381Y528619D01*
X692419Y527847D01*
X692720Y526334D01*
X693310Y524909D01*
X694167Y523627D01*
X695258Y522536D01*
X696540Y521679D01*
X697965Y521089D01*
X699478Y520788D01*
X700250Y520750D01*
X781000D01*
X782005Y520799D01*
X783975Y521191D01*
X785832Y521960D01*
X787503Y523077D01*
X788923Y524497D01*
X790040Y526168D01*
X790809Y528024D01*
X791201Y529995D01*
X791250Y531000D01*
X791250Y635250D01*
X848500Y635250D01*
X848500Y379750D01*
X848500Y379749D01*
Y379035D01*
X848221Y377635D01*
X847674Y376315D01*
X846881Y375128D01*
X845871Y374118D01*
X844684Y373325D01*
X843364Y372779D01*
X841964Y372500D01*
X841250Y372500D01*
X202750Y372500D01*
X201864D01*
X200125Y372846D01*
X198487Y373524D01*
X197013Y374509D01*
X195759Y375763D01*
X194774Y377237D01*
X194096Y378875D01*
X193750Y380614D01*
Y381500D01*
Y514000D01*
X193750Y514665D01*
X194009Y515969D01*
X194518Y517197D01*
X195257Y518303D01*
X196197Y519243D01*
X197302Y519982D01*
X198531Y520491D01*
X199835Y520750D01*
X200500Y520750D01*
X530895Y520750D01*
X530895Y520750D01*
X530895Y520750D01*
X531580Y520783D01*
X532923Y521050D01*
X534189Y521574D01*
X535328Y522335D01*
X536296Y523303D01*
X537057Y524442D01*
X537581Y525708D01*
X537848Y527051D01*
X537881Y527736D01*
X537881Y606369D01*
X537881Y606369D01*
X537881Y606369D01*
X537881Y606371D01*
X537764Y607565D01*
X537687Y607750D01*
X536848Y609776D01*
X535157Y611467D01*
X532946Y612382D01*
X531750Y612500D01*
X492500Y612500D01*
X491503Y612500D01*
X489548Y612889D01*
X487707Y613651D01*
X486049Y614759D01*
X484640Y616168D01*
X483532Y617826D01*
X482770Y619667D01*
X482381Y621622D01*
X482381Y622619D01*
Y759618D01*
X511539D01*
X518233Y752925D01*
X518270Y752641D01*
X519156Y750503D01*
X520565Y748667D01*
X522401Y747258D01*
X524539Y746372D01*
X526834Y746070D01*
X529129Y746372D01*
X531267Y747258D01*
X533103Y748667D01*
X534512Y750503D01*
X535398Y752641D01*
X535700Y754936D01*
X535398Y757231D01*
X534512Y759369D01*
X533103Y761205D01*
X531267Y762614D01*
X529129Y763500D01*
X528845Y763537D01*
X519954Y772429D01*
X518400Y773621D01*
X516590Y774371D01*
X514648Y774626D01*
X482381D01*
Y929250D01*
X481750D01*
Y1007500D01*
X481750Y1008589D01*
X482174Y1010726D01*
X483008Y1012738D01*
X484218Y1014549D01*
X485758Y1016090D01*
X487569Y1017300D01*
X489582Y1018133D01*
X491718Y1018558D01*
X492807Y1018557D01*
X585307Y1018557D01*
X585307Y1018557D01*
X585307Y1018557D01*
X586623Y1018622D01*
X586769Y1018651D01*
X589205Y1019135D01*
X591637Y1020142D01*
X593826Y1021605D01*
X595687Y1023466D01*
X597149Y1025655D01*
X598156Y1028086D01*
X598670Y1030668D01*
X598734Y1031984D01*
X598734Y1110326D01*
X599846Y1111333D01*
X601000Y1111220D01*
X604664Y1111580D01*
X608187Y1112649D01*
X611434Y1114385D01*
X614280Y1116720D01*
X616615Y1119566D01*
X618351Y1122813D01*
X619420Y1126336D01*
X619780Y1130000D01*
X619420Y1133664D01*
X618351Y1137187D01*
X616615Y1140434D01*
X614280Y1143280D01*
X611434Y1145615D01*
X608187Y1147351D01*
X604664Y1148420D01*
X601000Y1148780D01*
X600246Y1148706D01*
X598992Y1150090D01*
X599148Y1150874D01*
X599959Y1152834D01*
X601138Y1154597D01*
X602637Y1156096D01*
X604400Y1157275D01*
X606360Y1158086D01*
X608440Y1158500D01*
X609500Y1158500D01*
X845313Y1158500D01*
X845314Y1158500D01*
D02*
G37*
G36*
X425678Y1102571D02*
X425678Y1102571D01*
X425682D01*
X427064Y1102520D01*
X429022Y1102131D01*
X431108Y1101267D01*
X432985Y1100013D01*
X434581Y1098416D01*
X435836Y1096539D01*
X436700Y1094453D01*
X437140Y1092238D01*
X437140Y1091110D01*
X437140Y1071441D01*
X305199Y939500D01*
X200386D01*
X199732Y939500D01*
X198450Y939755D01*
X197243Y940255D01*
X196156Y940981D01*
X195231Y941906D01*
X194505Y942992D01*
X194005Y944200D01*
X193750Y945482D01*
X193750Y946136D01*
Y985000D01*
X249500Y1040750D01*
X249713D01*
X281518Y1072555D01*
X284448Y1071667D01*
X287499Y1071366D01*
X290550Y1071667D01*
X293484Y1072557D01*
X296189Y1074002D01*
X298559Y1075947D01*
X300504Y1078317D01*
X301949Y1081021D01*
X302839Y1083955D01*
X303139Y1087007D01*
X302839Y1090058D01*
X301950Y1092988D01*
X304017Y1095054D01*
X304017Y1095054D01*
X304017Y1095054D01*
X305804Y1096842D01*
X310008Y1099650D01*
X314679Y1101585D01*
X319637Y1102571D01*
X322165Y1102571D01*
X342664Y1102571D01*
X374894D01*
X375270Y1101071D01*
X373286Y1100011D01*
X370916Y1098066D01*
X368971Y1095696D01*
X367525Y1092992D01*
X366636Y1090058D01*
X366335Y1087007D01*
X366636Y1083955D01*
X367525Y1081021D01*
X368971Y1078317D01*
X370916Y1075947D01*
X373286Y1074002D01*
X375990Y1072557D01*
X378924Y1071667D01*
X381975Y1071366D01*
X385027Y1071667D01*
X387961Y1072557D01*
X390664Y1074002D01*
X393035Y1075947D01*
X394980Y1078317D01*
X396425Y1081021D01*
X397315Y1083955D01*
X397616Y1087007D01*
X397315Y1090058D01*
X396425Y1092992D01*
X394980Y1095696D01*
X393035Y1098066D01*
X390664Y1100011D01*
X388680Y1101071D01*
X389056Y1102571D01*
X425678D01*
X425678Y1102571D01*
D02*
G37*
G36*
X847000Y939000D02*
Y910500D01*
X802173D01*
X740000Y848327D01*
X740000Y829500D01*
X740046Y828569D01*
X740409Y826742D01*
X741122Y825022D01*
X742156Y823473D01*
X743473Y822156D01*
X745022Y821122D01*
X746742Y820409D01*
X748569Y820046D01*
X749500Y820000D01*
X787280Y820000D01*
X788287Y820000D01*
X790261Y819607D01*
X792121Y818837D01*
X793795Y817719D01*
X795219Y816295D01*
X796337Y814621D01*
X797107Y812761D01*
X797425Y811164D01*
X797500Y809781D01*
Y809780D01*
X797500D01*
X797500Y809780D01*
X797500Y790520D01*
X797500Y789582D01*
X797134Y787743D01*
X796416Y786010D01*
X795375Y784451D01*
X794049Y783125D01*
X792489Y782083D01*
X790757Y781366D01*
X788918Y781000D01*
X787980Y781000D01*
X655000D01*
X653769Y781000D01*
X651354Y781480D01*
X649079Y782423D01*
X647032Y783791D01*
X645291Y785532D01*
X643923Y787579D01*
X642980Y789854D01*
X642500Y792269D01*
X642500Y793500D01*
Y931250D01*
Y932210D01*
X642875Y934094D01*
X643610Y935868D01*
X644677Y937465D01*
X646035Y938823D01*
X647632Y939890D01*
X649406Y940625D01*
X651290Y941000D01*
X660982Y941000D01*
X845000D01*
X847000Y939000D01*
D02*
G37*
%LPC*%
G36*
X562750Y624763D02*
X560547Y624473D01*
X558494Y623622D01*
X556730Y622270D01*
X555378Y620506D01*
X554527Y618453D01*
X554237Y616250D01*
X554527Y614047D01*
X555378Y611994D01*
X556730Y610230D01*
X558494Y608878D01*
X560547Y608027D01*
X562750Y607737D01*
X564953Y608027D01*
X567006Y608878D01*
X568769Y610230D01*
X570122Y611994D01*
X570973Y614047D01*
X571263Y616250D01*
X570973Y618453D01*
X570122Y620506D01*
X568769Y622270D01*
X567006Y623622D01*
X564953Y624473D01*
X562750Y624763D01*
D02*
G37*
G36*
X825000Y596154D02*
X822307Y595799D01*
X819798Y594760D01*
X817643Y593107D01*
X815990Y590952D01*
X814950Y588443D01*
X814596Y585750D01*
X814950Y583057D01*
X815990Y580548D01*
X817643Y578393D01*
X819798Y576740D01*
X822307Y575700D01*
X825000Y575346D01*
X827693Y575700D01*
X830202Y576740D01*
X832357Y578393D01*
X834010Y580548D01*
X835050Y583057D01*
X835404Y585750D01*
X835050Y588443D01*
X834010Y590952D01*
X832357Y593107D01*
X830202Y594760D01*
X827693Y595799D01*
X825000Y596154D01*
D02*
G37*
G36*
X535000Y515764D02*
X532022Y515470D01*
X529159Y514602D01*
X526520Y513191D01*
X524207Y511293D01*
X522309Y508980D01*
X520898Y506341D01*
X520030Y503478D01*
X519737Y500500D01*
X520030Y497522D01*
X520898Y494659D01*
X522309Y492020D01*
X524207Y489707D01*
X526520Y487809D01*
X529159Y486398D01*
X532022Y485530D01*
X535000Y485237D01*
X537978Y485530D01*
X540841Y486398D01*
X543480Y487809D01*
X545793Y489707D01*
X547691Y492020D01*
X549102Y494659D01*
X549970Y497522D01*
X550263Y500500D01*
X549970Y503478D01*
X549102Y506341D01*
X547691Y508980D01*
X545793Y511293D01*
X543480Y513191D01*
X540841Y514602D01*
X537978Y515470D01*
X535000Y515764D01*
D02*
G37*
G36*
X690190Y465190D02*
X659810D01*
Y434810D01*
X690190D01*
Y465190D01*
D02*
G37*
G36*
X410190D02*
X379810D01*
Y434810D01*
X410190D01*
Y465190D01*
D02*
G37*
G36*
X829800Y460640D02*
X826749Y460340D01*
X823815Y459450D01*
X821111Y458004D01*
X818741Y456059D01*
X816796Y453689D01*
X815350Y450985D01*
X814460Y448051D01*
X814160Y445000D01*
X814460Y441949D01*
X815350Y439015D01*
X816796Y436311D01*
X818741Y433941D01*
X821111Y431996D01*
X823815Y430550D01*
X826749Y429660D01*
X829800Y429360D01*
X832851Y429660D01*
X835785Y430550D01*
X838489Y431996D01*
X840859Y433941D01*
X842804Y436311D01*
X844250Y439015D01*
X845140Y441949D01*
X845440Y445000D01*
X845140Y448051D01*
X844250Y450985D01*
X842804Y453689D01*
X840859Y456059D01*
X838489Y458004D01*
X835785Y459450D01*
X832851Y460340D01*
X829800Y460640D01*
D02*
G37*
G36*
X329800D02*
X326749Y460340D01*
X323815Y459450D01*
X321111Y458004D01*
X318741Y456059D01*
X316796Y453689D01*
X315350Y450985D01*
X314460Y448051D01*
X314160Y445000D01*
X314460Y441949D01*
X315350Y439015D01*
X316796Y436311D01*
X318741Y433941D01*
X321111Y431996D01*
X323815Y430550D01*
X326749Y429660D01*
X329800Y429360D01*
X332851Y429660D01*
X335785Y430550D01*
X338489Y431996D01*
X340859Y433941D01*
X342804Y436311D01*
X344250Y439015D01*
X345140Y441949D01*
X345440Y445000D01*
X345140Y448051D01*
X344250Y450985D01*
X342804Y453689D01*
X340859Y456059D01*
X338489Y458004D01*
X335785Y459450D01*
X332851Y460340D01*
X329800Y460640D01*
D02*
G37*
G36*
X242500Y415654D02*
X239807Y415299D01*
X237298Y414260D01*
X235143Y412607D01*
X233490Y410452D01*
X232451Y407943D01*
X232096Y405250D01*
X232451Y402557D01*
X233490Y400048D01*
X235143Y397893D01*
X237298Y396240D01*
X239807Y395201D01*
X242500Y394846D01*
X245193Y395201D01*
X247702Y396240D01*
X249857Y397893D01*
X251510Y400048D01*
X252549Y402557D01*
X252904Y405250D01*
X252549Y407943D01*
X251510Y410452D01*
X249857Y412607D01*
X247702Y414260D01*
X245193Y415299D01*
X242500Y415654D01*
D02*
G37*
G36*
X615000Y410566D02*
X612395Y410223D01*
X609967Y409217D01*
X607882Y407618D01*
X606283Y405533D01*
X605277Y403105D01*
X604934Y400500D01*
X605277Y397895D01*
X606283Y395467D01*
X607882Y393382D01*
X609967Y391782D01*
X612395Y390777D01*
X615000Y390434D01*
X617605Y390777D01*
X620033Y391782D01*
X622118Y393382D01*
X623717Y395467D01*
X624723Y397895D01*
X625066Y400500D01*
X624723Y403105D01*
X623717Y405533D01*
X622118Y407618D01*
X620033Y409217D01*
X617605Y410223D01*
X615000Y410566D01*
D02*
G37*
G36*
X505000D02*
X502395Y410223D01*
X499967Y409217D01*
X497882Y407618D01*
X496283Y405533D01*
X495277Y403105D01*
X494934Y400500D01*
X495277Y397895D01*
X496283Y395467D01*
X497882Y393382D01*
X499967Y391782D01*
X502395Y390777D01*
X505000Y390434D01*
X507605Y390777D01*
X510033Y391782D01*
X512118Y393382D01*
X513717Y395467D01*
X514723Y397895D01*
X515066Y400500D01*
X514723Y403105D01*
X513717Y405533D01*
X512118Y407618D01*
X510033Y409217D01*
X507605Y410223D01*
X505000Y410566D01*
D02*
G37*
G36*
X755000Y410066D02*
X752395Y409723D01*
X749967Y408717D01*
X747882Y407118D01*
X746283Y405033D01*
X745277Y402605D01*
X744934Y400000D01*
X745277Y397395D01*
X746283Y394967D01*
X747882Y392882D01*
X749967Y391283D01*
X752395Y390277D01*
X755000Y389934D01*
X757605Y390277D01*
X760033Y391283D01*
X762118Y392882D01*
X763717Y394967D01*
X764723Y397395D01*
X765066Y400000D01*
X764723Y402605D01*
X763717Y405033D01*
X762118Y407118D01*
X760033Y408717D01*
X757605Y409723D01*
X755000Y410066D01*
D02*
G37*
G36*
X645000D02*
X642395Y409723D01*
X639967Y408717D01*
X637882Y407118D01*
X636283Y405033D01*
X635277Y402605D01*
X634934Y400000D01*
X635277Y397395D01*
X636283Y394967D01*
X637882Y392882D01*
X639967Y391283D01*
X642395Y390277D01*
X645000Y389934D01*
X647605Y390277D01*
X650033Y391283D01*
X652118Y392882D01*
X653717Y394967D01*
X654723Y397395D01*
X655066Y400000D01*
X654723Y402605D01*
X653717Y405033D01*
X652118Y407118D01*
X650033Y408717D01*
X647605Y409723D01*
X645000Y410066D01*
D02*
G37*
G36*
X475000D02*
X472395Y409723D01*
X469967Y408717D01*
X467882Y407118D01*
X466283Y405033D01*
X465277Y402605D01*
X464934Y400000D01*
X465277Y397395D01*
X466283Y394967D01*
X467882Y392882D01*
X469967Y391283D01*
X472395Y390277D01*
X475000Y389934D01*
X477605Y390277D01*
X480033Y391283D01*
X482118Y392882D01*
X483717Y394967D01*
X484723Y397395D01*
X485066Y400000D01*
X484723Y402605D01*
X483717Y405033D01*
X482118Y407118D01*
X480033Y408717D01*
X477605Y409723D01*
X475000Y410066D01*
D02*
G37*
G36*
X365000D02*
X362395Y409723D01*
X359967Y408717D01*
X357882Y407118D01*
X356283Y405033D01*
X355277Y402605D01*
X354934Y400000D01*
X355277Y397395D01*
X356283Y394967D01*
X357882Y392882D01*
X359967Y391283D01*
X362395Y390277D01*
X365000Y389934D01*
X367605Y390277D01*
X370033Y391283D01*
X372118Y392882D01*
X373717Y394967D01*
X374723Y397395D01*
X375066Y400000D01*
X374723Y402605D01*
X373717Y405033D01*
X372118Y407118D01*
X370033Y408717D01*
X367605Y409723D01*
X365000Y410066D01*
D02*
G37*
%LPD*%
D11*
X791686Y1051686D02*
X792500Y1052500D01*
X754518Y1051686D02*
X791686D01*
X705296Y713000D02*
X720482Y697814D01*
X648250Y713000D02*
X705296D01*
X522500Y1030277D02*
X536205Y1043982D01*
X522500Y972500D02*
Y1030277D01*
X454602Y826122D02*
X483878D01*
X485000Y825000D01*
X470454Y605000D02*
X527500D01*
X454518Y620936D02*
X470454Y605000D01*
X734750Y1024000D02*
X746750D01*
X721250Y1037500D02*
X734750Y1024000D01*
X721250Y1037500D02*
Y1102500D01*
X434834Y798436D02*
X446834D01*
X421334Y811936D02*
X434834Y798436D01*
X421334Y811936D02*
Y876936D01*
X648250Y769000D02*
X660500Y756750D01*
X759500D01*
X725750Y709250D02*
Y727000D01*
Y709250D02*
X730542Y704458D01*
Y691041D02*
Y704458D01*
X721250Y681749D02*
X730542Y691041D01*
X720750Y641000D02*
X721250Y641500D01*
Y681749D01*
X533281Y1077750D02*
X586269D01*
X505364Y1049833D02*
X533281Y1077750D01*
X421250Y606750D02*
X434750Y593250D01*
X446750D01*
X421250Y606750D02*
Y671750D01*
D106*
X775750Y799900D02*
D03*
X264160Y800058D02*
D03*
Y881846D02*
D03*
X264160Y594362D02*
D03*
Y675896D02*
D03*
D107*
X824500Y919000D02*
D03*
X593250Y897000D02*
D03*
X593500Y813000D02*
D03*
X593250Y729000D02*
D03*
X825000Y610750D02*
D03*
D108*
X775750Y839500D02*
D03*
X329800Y445000D02*
D03*
X829800D02*
D03*
X381975Y1087007D02*
D03*
X287499D02*
D03*
X264160Y842246D02*
D03*
Y760458D02*
D03*
X264160Y554762D02*
D03*
Y636296D02*
D03*
D109*
X290200Y445000D02*
D03*
X790200D02*
D03*
X421575Y1087007D02*
D03*
X327099D02*
D03*
D110*
X601000Y1130000D02*
D03*
X221000Y1110000D02*
D03*
X751000Y595000D02*
D03*
X326000D02*
D03*
D111*
X562750Y616250D02*
D03*
D112*
X824500Y894000D02*
D03*
X825000Y585750D02*
D03*
X593250Y872000D02*
D03*
X593500Y788000D02*
D03*
X593250Y704000D02*
D03*
X242500Y405250D02*
D03*
D113*
X535000Y500500D02*
D03*
X725000Y450000D02*
D03*
X445000D02*
D03*
D114*
X675000D02*
D03*
X395000D02*
D03*
X585000Y500500D02*
D03*
D115*
X612750Y616250D02*
D03*
D116*
X217500Y405250D02*
D03*
D117*
X365000Y400000D02*
D03*
X475000D02*
D03*
X615000Y400500D02*
D03*
X505000D02*
D03*
X755000Y400000D02*
D03*
X645000D02*
D03*
D118*
X652500Y880000D02*
D03*
Y897500D02*
D03*
Y915000D02*
D03*
Y932500D02*
D03*
X826750Y980500D02*
D03*
X713455Y992686D02*
D03*
X840000Y1107500D02*
D03*
Y1090000D02*
D03*
Y1125000D02*
D03*
Y1055000D02*
D03*
Y1072500D02*
D03*
X754518Y1051686D02*
D03*
X840000Y1037500D02*
D03*
X648250Y713000D02*
D03*
X592500Y972500D02*
D03*
X627500D02*
D03*
X610000D02*
D03*
X720482Y697814D02*
D03*
X650000Y600000D02*
D03*
Y617500D02*
D03*
Y565000D02*
D03*
Y582500D02*
D03*
Y635000D02*
D03*
X536205Y1043982D02*
D03*
X557500Y972500D02*
D03*
X540000D02*
D03*
X575000D02*
D03*
X527500Y827500D02*
D03*
Y897500D02*
D03*
Y915000D02*
D03*
Y845000D02*
D03*
Y880000D02*
D03*
Y862500D02*
D03*
X522500Y972500D02*
D03*
X454602Y826122D02*
D03*
X527500Y810000D02*
D03*
Y710000D02*
D03*
Y675000D02*
D03*
Y692500D02*
D03*
Y640000D02*
D03*
Y657500D02*
D03*
Y605000D02*
D03*
Y622500D02*
D03*
X454518Y620936D02*
D03*
X413539Y767122D02*
D03*
X526834Y754936D02*
D03*
X205000Y970000D02*
D03*
X225000D02*
D03*
X245000D02*
D03*
Y950000D02*
D03*
X225000D02*
D03*
X205000D02*
D03*
X746750Y1024000D02*
D03*
X721250Y1102500D02*
D03*
X421334Y876936D02*
D03*
X446834Y798436D02*
D03*
X648250Y769000D02*
D03*
X759500Y756750D02*
D03*
X725750Y727000D02*
D03*
X720750Y641000D02*
D03*
X526750Y549750D02*
D03*
X413455Y561936D02*
D03*
X476614Y1082833D02*
D03*
X373262Y948009D02*
D03*
X587250Y1077750D02*
D03*
X505364Y1049833D02*
D03*
X446750Y593250D02*
D03*
X421250Y671750D02*
D03*
D119*
X577250Y881000D02*
X668000Y971750D01*
X814564Y992686D02*
X826750Y980500D01*
X713455Y992686D02*
X814564D01*
X668000Y971750D02*
X692519D01*
X713455Y992686D01*
X577250Y829250D02*
X593500Y813000D01*
X577250Y829250D02*
Y881000D01*
Y796750D02*
X593500Y813000D01*
X577250Y745000D02*
X593250Y729000D01*
X577250Y745000D02*
Y796750D01*
X287692Y800058D02*
X332750Y755000D01*
X264160Y800058D02*
X287692D01*
X332750Y755000D02*
X401417D01*
X331750Y550000D02*
X401519D01*
X264160Y594362D02*
X287388D01*
X331750Y550000D01*
X401519D02*
X413455Y561936D01*
X514564D01*
X413539Y767122D02*
X514648D01*
X526834Y754936D01*
X401417Y755000D02*
X413539Y767122D01*
X240000Y824218D02*
Y857686D01*
X264160Y881846D01*
X240000Y824218D02*
X264160Y800058D01*
X240000Y618522D02*
Y651736D01*
X264160Y675896D01*
X240000Y618522D02*
X264160Y594362D01*
X373262Y979481D02*
X476614Y1082833D01*
X373262Y948009D02*
Y979481D01*
X514564Y561936D02*
X526750Y549750D01*
M02*
