G04*
G04 #@! TF.GenerationSoftware,Altium Limited,Altium Designer,25.4.2 (15)*
G04*
G04 Layer_Color=16711935*
%FSLAX44Y44*%
%MOMM*%
G71*
G04*
G04 #@! TF.SameCoordinates,DF76A245-F719-427C-BC09-B61DEF695D9A*
G04*
G04*
G04 #@! TF.FilePolarity,Negative*
G04*
G01*
G75*
%ADD87R,2.8282X2.8282*%
%ADD88R,1.7782X1.7782*%
%ADD89C,2.8282*%
%ADD90R,2.8282X2.8282*%
%ADD91C,1.7272*%
%ADD92C,1.4032*%
%ADD93C,1.7782*%
%ADD94C,2.7532*%
%ADD95R,2.7532X2.7532*%
%ADD96R,1.4032X1.4032*%
%ADD97R,1.7782X1.7782*%
%ADD98C,1.7112*%
%ADD99C,1.4732*%
D87*
X775750Y799900D02*
D03*
X264160Y800058D02*
D03*
Y881846D02*
D03*
X264160Y594362D02*
D03*
Y675896D02*
D03*
D88*
X824500Y919000D02*
D03*
X593250Y897000D02*
D03*
X593500Y813000D02*
D03*
X593250Y729000D02*
D03*
X825000Y610750D02*
D03*
D89*
X775750Y839500D02*
D03*
X329800Y445000D02*
D03*
X829800D02*
D03*
X381975Y1087007D02*
D03*
X287499D02*
D03*
X264160Y842246D02*
D03*
Y760458D02*
D03*
X264160Y554762D02*
D03*
Y636296D02*
D03*
D90*
X290200Y445000D02*
D03*
X790200D02*
D03*
X421575Y1087007D02*
D03*
X327099D02*
D03*
D91*
X601000Y1130000D02*
D03*
X221000Y1110000D02*
D03*
X751000Y595000D02*
D03*
X326000D02*
D03*
D92*
X562750Y616250D02*
D03*
D93*
X824500Y894000D02*
D03*
X825000Y585750D02*
D03*
X593250Y872000D02*
D03*
X593500Y788000D02*
D03*
X593250Y704000D02*
D03*
X242500Y405250D02*
D03*
D94*
X535000Y500500D02*
D03*
X725000Y450000D02*
D03*
X445000D02*
D03*
D95*
X675000D02*
D03*
X395000D02*
D03*
X585000Y500500D02*
D03*
D96*
X612750Y616250D02*
D03*
D97*
X217500Y405250D02*
D03*
D98*
X365000Y400000D02*
D03*
X475000D02*
D03*
X615000Y400500D02*
D03*
X505000D02*
D03*
X755000Y400000D02*
D03*
X645000D02*
D03*
D99*
X652500Y880000D02*
D03*
Y897500D02*
D03*
Y915000D02*
D03*
Y932500D02*
D03*
X826750Y980500D02*
D03*
X713455Y992686D02*
D03*
X840000Y1107500D02*
D03*
Y1090000D02*
D03*
Y1125000D02*
D03*
Y1055000D02*
D03*
Y1072500D02*
D03*
X754518Y1051686D02*
D03*
X840000Y1037500D02*
D03*
X648250Y713000D02*
D03*
X592500Y972500D02*
D03*
X627500D02*
D03*
X610000D02*
D03*
X720482Y697814D02*
D03*
X650000Y600000D02*
D03*
Y617500D02*
D03*
Y565000D02*
D03*
Y582500D02*
D03*
Y635000D02*
D03*
X536205Y1043982D02*
D03*
X557500Y972500D02*
D03*
X540000D02*
D03*
X575000D02*
D03*
X527500Y827500D02*
D03*
Y897500D02*
D03*
Y915000D02*
D03*
Y845000D02*
D03*
Y880000D02*
D03*
Y862500D02*
D03*
X522500Y972500D02*
D03*
X454602Y826122D02*
D03*
X527500Y810000D02*
D03*
Y710000D02*
D03*
Y675000D02*
D03*
Y692500D02*
D03*
Y640000D02*
D03*
Y657500D02*
D03*
Y605000D02*
D03*
Y622500D02*
D03*
X454518Y620936D02*
D03*
X413539Y767122D02*
D03*
X526834Y754936D02*
D03*
X205000Y970000D02*
D03*
X225000D02*
D03*
X245000D02*
D03*
Y950000D02*
D03*
X225000D02*
D03*
X205000D02*
D03*
X746750Y1024000D02*
D03*
X721250Y1102500D02*
D03*
X421334Y876936D02*
D03*
X446834Y798436D02*
D03*
X648250Y769000D02*
D03*
X759500Y756750D02*
D03*
X725750Y727000D02*
D03*
X720750Y641000D02*
D03*
X526750Y549750D02*
D03*
X413455Y561936D02*
D03*
X476614Y1082833D02*
D03*
X373262Y948009D02*
D03*
X587250Y1077750D02*
D03*
X505364Y1049833D02*
D03*
X446750Y593250D02*
D03*
X421250Y671750D02*
D03*
M02*
