M48
;Layer_Color=9474304
;FILE_FORMAT=4:4
METRIC,LZ
;TYPE=PLATED
T01F00S00C0.7112
T02F00S00C0.8000
T03F00S00C1.0000
T04F00S00C1.0500
T05F00S00C1.7000
T06F00S00C1.7500
T07F00S00C3.2500
%
T01
X00413455Y00561936
X0044675Y0059325
X00454518Y00620936
X005275Y006225
Y0064
Y006575
Y00675
Y006925
Y0071
X00526834Y00754936
X00413539Y00767122
X0042125Y0067175
X005275Y00605
X0052675Y0054975
X0065Y00565
Y005825
Y006
Y006175
Y00635
X0072075Y00641
X00720482Y00697814
X0072575Y00727
X007595Y0075675
X0064825Y00769
Y00713
X00373262Y00948009
X00245Y0095
Y0097
X00225
Y0095
X00205
Y0097
X00421334Y00876936
X00454602Y00826122
X00446834Y00798436
X005275Y0081
Y008275
Y00845
Y008625
Y0088
Y008975
Y00915
X005225Y009725
X0054
X005575
X00575
X005925
X0061
X006275
X006525Y009325
Y00915
Y008975
Y0088
X00713455Y00992686
X0074675Y01024
X00754518Y01051686
X0072125Y011025
X0058725Y0107775
X00536205Y01043982
X00505364Y01049833
X00476614Y01082833
X0084Y0109
Y011075
Y01125
Y010725
Y01055
Y010375
X0082675Y009805
T02
X0056275Y0061625
X0061275
T03
X00475Y004
X00505Y004005
X00615
X00645Y004
X00755
X00365
T04
X00825Y0058575
Y0061075
X0059325Y00704
Y00729
X005935Y00788
X002425Y0040525
X002175
X005935Y00813
X0059325Y00872
Y00897
X008245Y00894
Y00919
T05
X00445Y0045
X00535Y005005
X00585
X00675Y0045
X00725
X00395
T06
X008298Y00445
X007902
X003298
X002902
X0026416Y00554762
Y00594362
Y00636296
Y00675896
X0026416Y00760458
Y00800058
Y00842246
Y00881846
X00287499Y01087007
X00327099
X00381975
X00421575
X0077575Y008395
Y007999
T07
X00751Y00595
X00326
X00221Y0111
X00601Y0113
M30
